<svg width="26" height="26" viewBox="0 0 26 26" fill="none" xmlns="http://www.w3.org/2000/svg">
<path d="M2.9575 25.8863C2.56988 25.8884 2.18567 25.8139 1.82694 25.667C1.46821 25.5202 1.14205 25.3039 0.867209 25.0305C0.592366 24.7572 0.37426 24.4322 0.225434 24.0743C0.0766069 23.7164 -5.9156e-06 23.3326 3.43048e-10 22.945L3.43048e-10 7.345C-1.18623e-05 6.56774 0.307637 5.82208 0.855719 5.27095C1.4038 4.71982 2.14775 4.40805 2.925 4.40375H12.6263L12.8375 2.68125C12.9319 1.97183 13.2803 1.32068 13.8182 0.848563C14.356 0.376441 15.0468 0.115368 15.7625 0.113753H23.0425C23.4301 0.111612 23.8143 0.186109 24.1731 0.332961C24.5318 0.479814 24.8579 0.696125 25.1328 0.969459C25.4076 1.24279 25.6257 1.56776 25.7746 1.92567C25.9234 2.28358 26 2.66738 26 3.055V18.655C26 19.4323 25.6924 20.1779 25.1443 20.7291C24.5962 21.2802 23.8522 21.592 23.075 21.5963H17.7125L16.0875 25.3988C16.0288 25.5281 15.9385 25.6405 15.8249 25.7258C15.7113 25.811 15.5781 25.8662 15.4375 25.8863H2.9575ZM2.9575 6.02875C2.78541 6.02874 2.61502 6.0629 2.45623 6.12924C2.29744 6.19559 2.1534 6.2928 2.03247 6.41524C1.91154 6.53768 1.81612 6.68292 1.75175 6.84252C1.68739 7.00213 1.65535 7.17292 1.6575 7.345V22.945C1.65535 23.1171 1.68739 23.2879 1.75175 23.4475C1.81612 23.6071 1.91154 23.7523 2.03247 23.8748C2.1534 23.9972 2.29744 24.0944 2.45623 24.1608C2.61502 24.2271 2.78541 24.2613 2.9575 24.2613H13.6338L11.18 21.2063C11.0039 21.0322 10.8699 20.8202 10.7882 20.5864C10.7065 20.3527 10.6793 20.1034 10.7087 19.8575L12.4313 6.02875H2.9575ZM13.5688 21.5963L15.1938 23.4975L15.99 21.6125L13.5688 21.5963ZM23.0425 19.9713C23.2146 19.9713 23.385 19.9371 23.5438 19.8708C23.7026 19.8044 23.8466 19.7072 23.9675 19.5848C24.0885 19.4623 24.1839 19.3171 24.2482 19.1575C24.3126 18.9979 24.3447 18.8271 24.3425 18.655V3.055C24.3447 2.88292 24.3126 2.71213 24.2482 2.55252C24.1839 2.39292 24.0885 2.24768 23.9675 2.12524C23.8466 2.0028 23.7026 1.90559 23.5438 1.83924C23.385 1.7729 23.2146 1.73874 23.0425 1.73875H15.7625C15.4426 1.74026 15.1342 1.8582 14.895 2.07053C14.6557 2.28287 14.502 2.57506 14.4625 2.8925L12.3337 19.9713H23.0425ZM7.5725 15.6325H5.4275L6.5 12.5125L7.5725 15.6325ZM4.3225 17.9888C4.41507 17.9835 4.50456 17.9537 4.5817 17.9022C4.65884 17.8508 4.72083 17.7797 4.76125 17.6963L5.2 16.4613H7.78375L8.2225 17.6963C8.26292 17.7797 8.32491 17.8508 8.40205 17.9022C8.47919 17.9537 8.56868 17.9835 8.66125 17.9888H9.75L7.23125 11.4888H5.8175L3.25 17.9888H4.3225ZM21.9862 14.625V8.85625H22.9125V7.75125H19.7437V8.85625H20.54V10.985C20.2475 11.245 18.5575 11.245 18.4762 10.7575C18.7141 10.6288 18.9106 10.4353 19.0429 10.1995C19.1752 9.9636 19.2379 9.69506 19.2237 9.425C19.219 9.17607 19.1618 8.93095 19.0559 8.70562C18.9499 8.4803 18.7977 8.27983 18.6091 8.11729C18.4205 7.95476 18.1998 7.83381 17.9613 7.76234C17.7228 7.69087 17.4719 7.67048 17.225 7.7025C16.8749 7.69032 16.527 7.76215 16.2104 7.91199C15.8937 8.06183 15.6176 8.28531 15.405 8.56375L16.315 9.40875C16.399 9.24951 16.5254 9.11664 16.6803 9.02485C16.8352 8.93307 17.0125 8.88596 17.1925 8.88875C17.286 8.87922 17.3804 8.89005 17.4693 8.92051C17.5581 8.95098 17.6393 9.00034 17.7073 9.06521C17.7753 9.13008 17.8283 9.20891 17.8629 9.29627C17.8975 9.38363 17.9127 9.47745 17.9075 9.57125C17.9075 10.0263 17.55 10.3838 16.7213 10.3513V11.5375C17.745 11.5375 18.1838 11.83 18.1838 12.2688C18.1843 12.3784 18.1618 12.4869 18.1176 12.5873C18.0735 12.6876 18.0086 12.7775 17.9274 12.8511C17.8461 12.9247 17.7502 12.9804 17.646 13.0144C17.5418 13.0485 17.4315 13.0602 17.3225 13.0488C17.0485 13.0343 16.7826 12.9508 16.5496 12.8059C16.3166 12.661 16.1241 12.4594 15.99 12.22L14.9987 13.1463C15.2603 13.5047 15.6063 13.793 16.0059 13.9858C16.4056 14.1785 16.8467 14.2697 17.29 14.2513C17.5801 14.2838 17.8738 14.2539 18.1514 14.1635C18.429 14.0732 18.6841 13.9246 18.8996 13.7276C19.115 13.5306 19.2859 13.2898 19.4006 13.0214C19.5154 12.753 19.5714 12.4631 19.565 12.1713C19.8743 12.2857 20.2144 12.2857 20.5238 12.1713V14.625H21.9862Z" fill="#345772"/>
</svg>
