<svg width="26" height="26" viewBox="0 0 26 26" fill="none" xmlns="http://www.w3.org/2000/svg">
<path d="M18.4167 2.16666H7.58335C6.38674 2.16666 5.41669 3.13671 5.41669 4.33332V21.6667C5.41669 22.8633 6.38674 23.8333 7.58335 23.8333H18.4167C19.6133 23.8333 20.5834 22.8633 20.5834 21.6667V4.33332C20.5834 3.13671 19.6133 2.16666 18.4167 2.16666Z" stroke="#345772" stroke-width="2" stroke-linecap="round" stroke-linejoin="round"/>
<path d="M13 6H13.01" stroke="#345772" stroke-width="2" stroke-linecap="round" stroke-linejoin="round"/>
<g clip-path="url(#clip0_56_164)">
<path d="M19 25C21.7614 25 24 22.7614 24 20C24 17.2386 21.7614 15 19 15C16.2386 15 14 17.2386 14 20C14 22.7614 16.2386 25 19 25Z" fill="#CD454E" stroke="#CD454E" stroke-linecap="round" stroke-linejoin="round"/>
<path d="M17 20L19 22L21 20" stroke="white" stroke-linecap="round" stroke-linejoin="round"/>
<path d="M19 18V22" stroke="white" stroke-linecap="round" stroke-linejoin="round"/>
</g>
<defs>
<clipPath id="clip0_56_164">
<rect width="12" height="12" fill="white" transform="translate(13 14)"/>
</clipPath>
</defs>
</svg>
